<svg xmlns="http://www.w3.org/2000/svg" width="28.355" height="31.959" viewBox="0 0 28.355 31.959">
  <g id="Group_73" data-name="Group 73" transform="translate(-3749.06 -544.17)">
    <path id="Path_27" data-name="Path 27" d="M3749.132,551.475c.03-.633-.1-1.241-.067-1.857.011-.2.045-.3.271-.354a43.919,43.919,0,0,0,4.623-1.3,39.33,39.33,0,0,0,5.5-2.5,9.628,9.628,0,0,1,3.152-1.245,4.678,4.678,0,0,1,2.256.251,26.937,26.937,0,0,1,3.149,1.526,35.823,35.823,0,0,0,5.831,2.411c1.093.336,2.205.6,3.315.864.186.045.25.114.254.307.015.833-.053,1.665-.084,2.495a28.086,28.086,0,0,1-.308,3.1,33.6,33.6,0,0,1-.924,4.28,28.94,28.94,0,0,1-4.955,9.861,28.983,28.983,0,0,1-3.327,3.612,23.079,23.079,0,0,1-4.089,3.05.841.841,0,0,1-.981,0,24.447,24.447,0,0,1-3.618-2.485c-.62-.507-1.2-1.056-1.76-1.616a25.59,25.59,0,0,1-3.846-4.922,30.317,30.317,0,0,1-2.131-4.279,31.563,31.563,0,0,1-1.475-4.823,25.222,25.222,0,0,1-.47-2.722c-.106-.9-.225-1.8-.264-2.707-.014-.319-.031-.64-.049-.941m1.318-.3c-.022.219.049.517.054.814a23.269,23.269,0,0,0,.211,2.562,32.171,32.171,0,0,0,.609,3.38,29.669,29.669,0,0,0,2.073,5.944,26.233,26.233,0,0,0,4.685,6.788c.388.4.807.781,1.22,1.161a14.611,14.611,0,0,0,1.117.983,20.656,20.656,0,0,0,2.616,1.771.336.336,0,0,0,.387,0,26.557,26.557,0,0,0,4.314-3.436c.475-.449.89-.955,1.324-1.442a24.12,24.12,0,0,0,1.767-2.254,27.856,27.856,0,0,0,2.813-5.1,28.518,28.518,0,0,0,1.384-4.115,30.456,30.456,0,0,0,.824-4.715c.09-.958.181-1.915.183-2.878,0-.182-.037-.261-.246-.307-1.037-.225-2.05-.536-3.062-.857a34.32,34.32,0,0,1-4.8-2c-.975-.482-1.935-.992-2.91-1.473a3.983,3.983,0,0,0-1.762-.48,4.317,4.317,0,0,0-1.9.54c-1.719.846-3.4,1.777-5.165,2.518a33.739,33.739,0,0,1-5,1.639c-.73.179-.733.168-.733.96" fill="#3a0b0b"/>
    <path id="Path_28" data-name="Path 28" d="M3757.79,559.668a8.564,8.564,0,0,1,.78-.873c.107-.1.169-.138.3-.016.735.687,1.473,1.368,2.223,2.037.449.4.912.783,1.333,1.212.1.1.169.155.281-.019.811-1.266,1.636-2.521,2.453-3.784.948-1.469,1.9-2.935,2.83-4.417.164-.262.276-.28.482-.093a1.233,1.233,0,0,0,.2.14c.213.13.564.228.588.42s-.224.437-.363.651c-.934,1.441-1.875,2.879-2.808,4.321-1.028,1.588-2.058,3.175-3.068,4.774-.146.231-.248.158-.377.041-.5-.45-.992-.91-1.492-1.361q-1.533-1.383-3.07-2.76c-.1-.09-.2-.185-.292-.273" fill="#3a0b0b"/>
  </g>
</svg>
